<svg width="24" height="16" viewBox="0 0 24 16" fill="none" xmlns="http://www.w3.org/2000/svg">
<path d="M19.2645 15.852H16.272C15.6732 15.852 15.0873 15.6773 14.5862 15.3493C14.0851 15.0214 13.6906 14.5543 13.451 14.0055L13.1245 13.2555C13.0305 13.04 12.8757 12.8566 12.679 12.7279C12.4823 12.5991 12.2524 12.5305 12.0173 12.5305C11.7822 12.5305 11.5522 12.5991 11.3555 12.7279C11.1589 12.8566 11.004 13.04 10.91 13.2555L10.583 14.0055C10.3434 14.5543 9.94889 15.0214 9.44781 15.3493C8.94674 15.6773 8.36089 15.852 7.76202 15.852H4.67603C3.43632 15.8505 2.24782 15.3574 1.37122 14.4808C0.494611 13.6042 0.0014556 12.4157 0 11.176V4.67599C0.0014556 3.43629 0.494611 2.24777 1.37122 1.37117C2.24782 0.494565 3.43632 0.0014556 4.67603 0H19.265C20.5048 0.00132353 21.6934 0.494399 22.57 1.37103C23.4466 2.24767 23.9397 3.43625 23.941 4.67599V6.453C23.941 6.70105 23.8424 6.93893 23.6671 7.11432C23.4917 7.28971 23.2538 7.38824 23.0057 7.38824C22.7577 7.38824 22.5198 7.28971 22.3444 7.11432C22.169 6.93893 22.0705 6.70105 22.0705 6.453V4.67599C22.0697 3.93217 21.7739 3.21905 21.2479 2.69308C20.722 2.16712 20.0088 1.87129 19.265 1.8705H4.67603C3.9322 1.87129 3.21908 2.16712 2.69312 2.69308C2.16715 3.21905 1.87128 3.93217 1.87048 4.67599V11.176C1.87128 11.9198 2.16715 12.6329 2.69312 13.1589C3.21908 13.6849 3.9322 13.9807 4.67603 13.9815H7.76202C7.997 13.9814 8.22685 13.9129 8.42346 13.7842C8.62007 13.6555 8.77491 13.4723 8.86902 13.257L9.19598 12.507C9.43572 11.9583 9.83031 11.4914 10.3314 11.1635C10.8324 10.8357 11.4182 10.661 12.017 10.661C12.6158 10.661 13.2016 10.8357 13.7026 11.1635C14.2037 11.4914 14.5983 11.9583 14.838 12.507L15.165 13.257C15.259 13.4724 15.4138 13.6557 15.6105 13.7843C15.8071 13.913 16.037 13.9816 16.272 13.9815H19.2645C20.0083 13.9807 20.7215 13.6849 21.2474 13.1589C21.7734 12.6329 22.0692 11.9198 22.07 11.176C22.07 10.928 22.1685 10.6901 22.3439 10.5147C22.5193 10.3393 22.7572 10.2408 23.0052 10.2408C23.2533 10.2408 23.4912 10.3393 23.6666 10.5147C23.842 10.6901 23.9405 10.928 23.9405 11.176C23.9392 12.4157 23.4461 13.6043 22.5695 14.481C21.6928 15.3576 20.5043 15.8507 19.2645 15.852Z" fill="#111111"/>
<path d="M5.18359 6.31312V4.88813C5.18359 4.37174 4.76498 3.95312 4.24859 3.95312H4.24809C3.73171 3.95312 3.31309 4.37174 3.31309 4.88813V6.31312C3.31309 6.82951 3.73171 7.24813 4.24809 7.24813H4.24859C4.76498 7.24813 5.18359 6.82951 5.18359 6.31312Z" fill="#111111"/>
</svg>
