<svg version="1.0" id="Layer_1" xmlns="http://www.w3.org/2000/svg" x="0" y="0" viewBox="0 0 24 24" style="enable-background:new 0 0 24 24" xml:space="preserve"><style>.st0{fill:#111}</style><path class="st0" d="M5.19 18.52a2.26 2.26 0 0 1-1.92-1.08c-.25-.42-.35-.92-.28-1.4.07-.48.31-.93.67-1.25l1.04-.94V9.44C4.7 5.37 8.11 1.8 12 1.8s7.3 3.57 7.3 7.64v4.41l1.04.94c.36.33.6.77.67 1.25.07.48-.03.97-.28 1.39-.21.34-.49.61-.83.8-.34.19-.7.31-1.11.29H5.19c.01 0 .01 0 0 0zM12 3.4c-3.04 0-5.71 2.82-5.71 6.04v4.77c0 .23-.09.44-.26.59l-1.3 1.18c-.08.08-.14.19-.16.3-.02.12.01.24.07.34.05.09.14.17.23.22.1.06.22.07.32.08h13.6c.12-.02.22-.03.32-.08s.18-.13.24-.23c.05-.09.08-.21.06-.33a.55.55 0 0 0-.16-.3l-1.3-1.18a.788.788 0 0 1-.26-.59V9.44C17.7 6.23 15.04 3.4 12 3.4z"/><path class="st0" d="M12 22.19c-1.17 0-2.28-.46-3.11-1.29a4.34 4.34 0 0 1-1.29-3.1c0-.44.36-.8.8-.8h7.19c.44 0 .8.36.8.8 0 1.17-.46 2.28-1.29 3.11-.82.83-1.93 1.28-3.1 1.28zM9.32 18.6c.13.44.37.85.7 1.18 1.05 1.05 2.9 1.06 3.96 0 .33-.33.57-.74.7-1.18H9.32z"/></svg>