<svg version="1.0" id="Layer_1" xmlns="http://www.w3.org/2000/svg" x="0" y="0" viewBox="0 0 24 24" style="enable-background:new 0 0 24 24" xml:space="preserve"><style>.st0{fill:#111}</style><path class="st0" d="M20.33 18.47v2.49c0 .46.37.84.84.84.46 0 .84-.37.84-.84v-2.49c0-.46-.37-.84-.84-.84s-.84.38-.84.84zM7.17 11.13c.22 0 .42-.09.58-.24.15-.15.24-.36.24-.58V7.86h1.64v2.45c0 .22.09.42.24.58.15.15.36.24.58.24.22 0 .42-.09.58-.24.15-.15.24-.36.24-.58V7.04c0-.22-.09-.42-.24-.58a.825.825 0 0 0-.58-.24H7.17a.815.815 0 0 0-.82.82v3.27c0 .22.09.42.24.58.15.16.36.24.58.24zM12.89 7.04c0 .22.09.42.24.58.15.15.36.24.58.24h2.45V9.5h-2.45c-.22 0-.42.09-.58.24-.15.15-.24.36-.24.58 0 .22.09.42.24.58.15.15.36.24.58.24h3.27c.22 0 .42-.09.58-.24.15-.15.24-.36.24-.58V7.04c0-.22-.09-.42-.24-.58a.825.825 0 0 0-.58-.24h-3.27c-.22 0-.42.09-.58.24-.15.16-.24.37-.24.58zM7.17 17.67h3.27c.22 0 .42-.09.58-.24.15-.15.24-.36.24-.58 0-.22-.09-.42-.24-.58a.825.825 0 0 0-.58-.24H7.98V14.4h2.45c.22 0 .42-.09.58-.24.15-.15.24-.36.24-.58 0-.22-.09-.42-.24-.58a.825.825 0 0 0-.58-.24H7.17a.815.815 0 0 0-.82.82v3.27c0 .22.09.42.24.58.15.16.36.24.58.24zM14.53 16.86c0 .16-.05.32-.14.45a.838.838 0 0 1-.84.35.855.855 0 0 1-.42-.22.814.814 0 0 1-.22-.42.76.76 0 0 1 .05-.47c.06-.15.17-.28.3-.37.13-.09.29-.14.45-.14.22 0 .42.09.58.24.15.15.24.36.24.58zM17.8 16.86c0 .16-.05.32-.14.45a.838.838 0 0 1-.84.35.855.855 0 0 1-.42-.22.814.814 0 0 1-.22-.42.76.76 0 0 1 .05-.47c.06-.15.17-.28.3-.37.13-.09.29-.14.45-.14.22 0 .42.09.58.24.15.15.24.36.24.58zM13.71 14.4h3.27c.22 0 .42-.09.58-.24.15-.15.24-.36.24-.58 0-.22-.09-.42-.24-.58a.825.825 0 0 0-.58-.24h-3.27c-.22 0-.42.09-.58.24-.15.15-.24.36-.24.58 0 .22.09.42.24.58.15.16.36.24.58.24zM3.67 5.53V3.04c0-.46-.37-.84-.84-.84-.46 0-.83.38-.83.84v2.49c0 .46.37.84.84.84.46 0 .83-.38.83-.84z"/><path class="st0" d="M5.33 2.2H2.84c-.47 0-.84.38-.84.84 0 .46.37.84.84.84h2.49c.46 0 .84-.37.84-.84a.852.852 0 0 0-.84-.84zM21.16 20.12h-2.49c-.46 0-.84.37-.84.84 0 .46.37.84.84.84h2.49c.46 0 .84-.37.84-.84 0-.46-.38-.84-.84-.84z"/></svg>