<svg width="15" height="15" viewBox="0 0 15 15" fill="none" xmlns="http://www.w3.org/2000/svg">
    <path d="M7.50067 3.59782C6.72996 3.59782 5.97655 3.82667 5.33573 4.25543C4.69491 4.6842 4.19545 5.29362 3.90051 6.00663C3.60557 6.71964 3.5284 7.50422 3.67876 8.26114C3.82912 9.01807 4.20025 9.71336 4.74523 10.2591C5.2902 10.8048 5.98454 11.1764 6.74044 11.327C7.49634 11.4775 8.27985 11.4003 8.99189 11.1049C9.70393 10.8096 10.3125 10.3095 10.7407 9.66777C11.1689 9.02607 11.3974 8.27165 11.3974 7.49989C11.3974 6.46501 10.9868 5.47254 10.256 4.74077C9.52527 4.009 8.53414 3.59788 7.50067 3.59782V3.59782ZM10.4358 3.28297C10.4072 3.33272 10.3691 3.37631 10.3237 3.41121C10.2782 3.44611 10.2262 3.47162 10.1709 3.48628C10.1336 3.49639 10.0952 3.50154 10.0566 3.50161C9.98002 3.50149 9.90483 3.48119 9.83857 3.44278C9.77232 3.40436 9.71732 3.34916 9.6791 3.28272C9.64088 3.21629 9.62079 3.14096 9.62083 3.06429C9.62088 2.98762 9.64107 2.91232 9.67937 2.84593L10.6535 1.1573C10.7114 1.05692 10.8067 0.983676 10.9185 0.953696C11.0304 0.923715 11.1495 0.939449 11.2498 0.997434C11.35 1.05542 11.4232 1.15091 11.4531 1.26289C11.483 1.37488 11.4673 1.49418 11.4094 1.59457L10.4358 3.28297ZM12.1787 7.49989C12.1788 7.38401 12.2248 7.27292 12.3067 7.19098C12.3885 7.10905 12.4994 7.06296 12.6152 7.06285H14.5635C14.6793 7.06285 14.7903 7.10889 14.8722 7.19085C14.954 7.27282 15 7.38398 15 7.49989C15 7.6158 14.954 7.72697 14.8722 7.80893C14.7903 7.89089 14.6793 7.93694 14.5635 7.93694H12.6152C12.4994 7.93682 12.3885 7.89074 12.3067 7.8088C12.2248 7.72686 12.1788 7.61576 12.1787 7.49989V7.49989ZM12.1481 9.682L13.8344 10.6576C13.9175 10.706 13.9823 10.7804 14.0188 10.8694C14.0553 10.9583 14.0616 11.0568 14.0366 11.1497C14.0116 11.2426 13.9567 11.3246 13.8804 11.3831C13.8042 11.4416 13.7108 11.4733 13.6148 11.4733C13.5386 11.4732 13.4638 11.4529 13.398 11.4146L11.7116 10.4392C11.662 10.4105 11.6185 10.3723 11.5836 10.3268C11.5486 10.2812 11.523 10.2293 11.5082 10.1738C11.4934 10.1184 11.4896 10.0605 11.497 10.0036C11.5045 9.94669 11.5231 9.89181 11.5518 9.84209C11.5804 9.79237 11.6186 9.74879 11.6641 9.71384C11.7095 9.67888 11.7614 9.65324 11.8168 9.63838C11.8722 9.62351 11.9299 9.61971 11.9868 9.6272C12.0436 9.63468 12.0984 9.6533 12.1481 9.682V9.682ZM3.75078 0.996436C3.85107 0.938528 3.97022 0.922849 4.08205 0.952844C4.19388 0.982839 4.28925 1.05606 4.34721 1.15641L5.32129 2.84504C5.36479 2.91984 5.38509 3.0059 5.3796 3.09228C5.3741 3.17866 5.34306 3.26145 5.29043 3.33011C5.2378 3.39878 5.16597 3.4502 5.08406 3.47786C5.00215 3.50551 4.91387 3.50813 4.83047 3.48539C4.77503 3.47077 4.72305 3.44527 4.67753 3.41037C4.63202 3.37547 4.59388 3.33187 4.56532 3.28209L3.59101 1.59346C3.53338 1.49302 3.51782 1.3738 3.54776 1.26191C3.57771 1.15001 3.65071 1.05456 3.75078 0.996436ZM7.50067 2.81549C7.38493 2.81538 7.27395 2.7693 7.19209 2.68737C7.11023 2.60544 7.06417 2.49434 7.06399 2.37845V0.427412C7.06656 0.313177 7.11369 0.20449 7.19528 0.124609C7.27687 0.0447287 7.38644 0 7.50055 0C7.61466 0 7.72423 0.0447287 7.80583 0.124609C7.88742 0.20449 7.93454 0.313177 7.93712 0.427412V2.37845C7.93694 2.4943 7.8909 2.60537 7.80909 2.68729C7.72727 2.76922 7.61637 2.81532 7.50067 2.81549V2.81549ZM3.07091 5.37622C2.99456 5.3762 2.91957 5.35604 2.85347 5.31778L1.16601 4.34215C1.09132 4.29896 1.0311 4.23456 0.992966 4.15709C0.954831 4.07962 0.940491 3.99257 0.951774 3.90694C0.963057 3.82131 0.999451 3.74096 1.05635 3.67605C1.11324 3.61114 1.18808 3.56458 1.27141 3.54227C1.3267 3.52715 1.38444 3.5232 1.44128 3.53064C1.49811 3.53807 1.55291 3.55676 1.60246 3.5856L3.28992 4.561C3.37324 4.60911 3.43836 4.68344 3.47515 4.77243C3.51195 4.86142 3.51835 4.96008 3.49338 5.05309C3.4684 5.1461 3.41344 5.22825 3.33705 5.28676C3.26065 5.34527 3.1671 5.37688 3.07091 5.37666V5.37622ZM11.7121 4.56056L13.3984 3.58515C13.4987 3.5272 13.6178 3.51149 13.7296 3.5415C13.8414 3.5715 13.9368 3.64474 13.9946 3.74513C14.0525 3.84551 14.0682 3.96481 14.0382 4.07677C14.0083 4.18873 13.9351 4.28419 13.8349 4.34215L12.1485 5.31778C12.0989 5.34647 12.0441 5.3651 11.9872 5.37258C11.9304 5.38007 11.8726 5.37627 11.8173 5.36141C11.7619 5.34654 11.71 5.3209 11.6645 5.28595C11.619 5.25099 11.5809 5.20741 11.5522 5.15769C11.5236 5.10797 11.505 5.05309 11.4975 4.99617C11.49 4.93925 11.4938 4.88142 11.5086 4.82597C11.5235 4.77052 11.5491 4.71854 11.584 4.673C11.6189 4.62746 11.6624 4.58925 11.7121 4.56056V4.56056ZM9.83846 11.5568C9.93875 11.4991 10.0578 11.4834 10.1696 11.5134C10.2813 11.5434 10.3767 11.6166 10.4347 11.7168L11.409 13.4054C11.4645 13.5057 11.4785 13.6238 11.4479 13.7343C11.4173 13.8448 11.3446 13.9389 11.2455 13.9962C11.1463 14.0535 11.0286 14.0696 10.9178 14.0409C10.8069 14.0122 10.7118 13.941 10.6528 13.8427L9.6787 12.1541C9.62093 12.0536 9.60532 11.9343 9.63527 11.8224C9.66522 11.7104 9.73829 11.6149 9.83846 11.5568V11.5568ZM0.43645 7.06285H2.38484C2.50059 7.06285 2.61161 7.10889 2.69346 7.19085C2.77531 7.27282 2.82129 7.38398 2.82129 7.49989C2.82129 7.6158 2.77531 7.72697 2.69346 7.80893C2.61161 7.89089 2.50059 7.93694 2.38484 7.93694H0.43645C0.320696 7.93694 0.209685 7.89089 0.127835 7.80893C0.045984 7.72697 3.91295e-07 7.6158 3.91295e-07 7.49989C3.91295e-07 7.38398 0.045984 7.27282 0.127835 7.19085C0.209685 7.10889 0.320696 7.06285 0.43645 7.06285V7.06285ZM1.16446 10.6576L2.85191 9.682C2.95219 9.62404 3.07135 9.60835 3.18318 9.63838C3.29501 9.6684 3.39035 9.74167 3.44823 9.84209C3.50611 9.9425 3.52178 10.0618 3.49179 10.1738C3.46181 10.2858 3.38864 10.3813 3.28836 10.4392L1.60091 11.4146C1.53524 11.453 1.46059 11.4732 1.38457 11.4733C1.34597 11.4732 1.30755 11.4681 1.2703 11.458C1.21488 11.4434 1.16291 11.4179 1.11742 11.383C1.07193 11.3481 1.03385 11.3044 1.00537 11.2546C0.947649 11.1542 0.932095 11.0349 0.962132 10.923C0.992168 10.811 1.06533 10.7156 1.16557 10.6576H1.16446ZM4.56532 11.7177C4.6232 11.6173 4.71853 11.5441 4.83034 11.5141C4.94215 11.4841 5.06129 11.4998 5.16154 11.5577C5.26178 11.6157 5.33493 11.7111 5.36489 11.8231C5.39485 11.9351 5.37917 12.0544 5.32129 12.1547L4.34698 13.8434C4.28907 13.9438 4.19372 14.017 4.08189 14.047C3.97005 14.077 3.85091 14.0612 3.75066 14.0032C3.65041 13.9452 3.57728 13.8498 3.54734 13.7378C3.5174 13.6258 3.53311 13.5065 3.59101 13.4061L4.56532 11.7177ZM7.50067 12.1843C7.6164 12.1845 7.72734 12.2306 7.80916 12.3126C7.89098 12.3945 7.937 12.5057 7.93712 12.6216V14.5726C7.93454 14.6868 7.88742 14.7955 7.80583 14.8754C7.72423 14.9553 7.61466 15 7.50055 15C7.38644 15 7.27687 14.9553 7.19528 14.8754C7.11369 14.7955 7.06656 14.6868 7.06399 14.5726V12.6216C7.06411 12.5056 7.11015 12.3945 7.19202 12.3125C7.27389 12.2305 7.38489 12.1844 7.50067 12.1843V12.1843Z" fill="#FFD600"/>
</svg>
