<svg version="1.0" id="Layer_1" xmlns="http://www.w3.org/2000/svg" x="0" y="0" viewBox="0 0 23.94 25.03" style="enable-background:new 0 0 23.94 25.03" xml:space="preserve"><style>.nav4-st0{fill-rule:evenodd;clip-rule:evenodd;fill:#111}</style><path class="nav4-st0" d="M17.97 4.39h-12c-.55 0-1 .45-1 1v14.25c0 .55.45 1 1 1h12c.55 0 1-.45 1-1V5.39c0-.55-.45-1-1-1zm-12-2c-1.66 0-3 1.34-3 3v14.25c0 1.66 1.34 3 3 3h12c1.66 0 3-1.34 3-3V5.39c0-1.66-1.34-3-3-3h-12z"/><path class="nav4-st0" d="M7.47 9.26c0-.55.45-1 1-1h3.62c.55 0 1 .45 1 1s-.45 1-1 1H8.47c-.55 0-1-.45-1-1zM7.47 13.76c0-.55.45-1 1-1h7c.55 0 1 .45 1 1s-.45 1-1 1h-7c-.55 0-1-.45-1-1z"/></svg>