<svg version="1.0" xmlns="http://www.w3.org/2000/svg" viewBox="0 0 23.94 25.03" style="enable-background:new 0 0 23.94 25.03" xml:space="preserve">
<style type="text/css">
	.nav5-st0{fill-rule:evenodd;clip-rule:evenodd;fill:#111111;}
	.nav5-st1{fill:#111111;}
</style>
<path class="nav5-st0" d="M17.76 16.15a7.358 7.358 0 0 0-5.2-2.16h-1.17c-1.95 0-3.82.78-5.2 2.16s-2.16 3.25-2.16 5.2c0 .27.11.54.3.73.19.19.46.3.73.3s.54-.11.73-.3c.19-.19.3-.46.3-.73 0-1.41.56-2.75 1.55-3.75.99-.99 2.34-1.55 3.75-1.55h1.17c1.41 0 2.75.56 3.75 1.55.99.99 1.55 2.34 1.55 3.75 0 .27.11.54.3.73.19.19.46.3.73.3.27 0 .54-.11.73-.3.19-.19.3-.46.3-.73 0-1.95-.78-3.82-2.16-5.2z"/><path class="nav5-st1" d="M11.9 13.69c1.46 0 2.87-.58 3.9-1.62a5.512 5.512 0 0 0 .69-6.97 5.533 5.533 0 0 0-5.67-2.36 5.534 5.534 0 0 0-4.34 4.35c-.21 1.07-.1 2.18.31 3.19s1.13 1.87 2.04 2.48c.91.6 1.97.93 3.07.93zm.31-2.08c-.33.03-.66.01-.99-.05a3.38 3.38 0 0 1-1.77-.95c-.48-.48-.81-1.1-.95-1.77s-.07-1.37.2-2c.26-.63.7-1.18 1.27-1.56.57-.38 1.24-.58 1.93-.58.57 0 1.11.15 1.61.41.3.16.59.35.84.6a3.51 3.51 0 0 1 1.02 2.45 3.464 3.464 0 0 1-3.16 3.45z"/>
</svg>
