<svg width="24" height="24" viewBox="0 0 24 24" fill="none" xmlns="http://www.w3.org/2000/svg">
<path d="M18.8155 3.75464C18.9522 3.84371 19.0648 3.96517 19.1433 4.10822C19.2218 4.25126 19.2638 4.41148 19.2655 4.57465C19.2651 4.74855 19.2163 4.9189 19.1245 5.06659C19.0326 5.21428 18.9015 5.33343 18.7457 5.41071C18.5899 5.48798 18.4156 5.52033 18.2425 5.50406C18.0693 5.48779 17.9042 5.42357 17.7655 5.31863L14.242 2.63364C13.5896 2.13788 12.7927 1.86948 11.9732 1.86948C11.1538 1.86948 10.3569 2.13788 9.7045 2.63364L3.345 7.48364C2.88852 7.83387 2.51843 8.28411 2.26324 8.79977C2.00806 9.31544 1.87455 9.88278 1.87299 10.4581V18.3261C1.87404 19.318 2.26853 20.2689 2.96988 20.9702C3.67122 21.6716 4.62213 22.0661 5.61398 22.0671H18.3325C19.3243 22.0661 20.2752 21.6716 20.9766 20.9702C21.6779 20.2689 22.0724 19.318 22.0735 18.3261V10.4576C22.0752 9.88201 21.9449 9.31365 21.6925 8.79626C21.4402 8.27888 21.0726 7.82624 20.618 7.47314C20.4208 7.3227 20.2914 7.10006 20.2584 6.85425C20.2253 6.60843 20.2913 6.35957 20.4417 6.16238C20.5922 5.9652 20.8148 5.83585 21.0606 5.8028C21.3064 5.76974 21.5553 5.8357 21.7525 5.98615C22.4354 6.51428 22.988 7.19198 23.368 7.96716C23.7479 8.74235 23.9449 9.59436 23.944 10.4576V18.3256C23.9423 19.8132 23.3506 21.2394 22.2987 22.2913C21.2468 23.3432 19.8206 23.9349 18.333 23.9366H5.61099C4.12339 23.9349 2.69722 23.3432 1.64532 22.2913C0.593431 21.2394 0.00172031 19.8132 0 18.3256V10.4576C0.00245993 9.59467 0.202765 8.74375 0.585541 7.97031C0.968317 7.19687 1.52335 6.52149 2.20798 5.99612L8.56747 1.14615C9.54613 0.402578 10.7414 0 11.9705 0C13.1996 0 14.3949 0.402578 15.3735 1.14615L17.3945 2.68665L18.8155 3.75464Z" fill="#111111"/>
<path d="M14.4122 12.9297H9.53266C9.01627 12.9297 8.59766 13.3483 8.59766 13.8647V13.8652C8.59766 14.3816 9.01627 14.8002 9.53266 14.8002H14.4122C14.9285 14.8002 15.3472 14.3816 15.3472 13.8652V13.8647C15.3472 13.3483 14.9285 12.9297 14.4122 12.9297Z" fill="#111111"/>
</svg>
