<svg version="1.0" id="Layer_1" xmlns="http://www.w3.org/2000/svg" x="0" y="0" viewBox="0 0 23.94 25.03" style="enable-background:new 0 0 23.94 25.03" xml:space="preserve"><style>.gnb-st0{fill:#fff}</style><path class="gnb-st0" d="M16.28 18.27c.23.15.52.2.79.15.27-.06.51-.22.66-.45 2.43-3.74 3.67-6.64 3.67-8.59 0-2.5-.99-4.9-2.76-6.66C16.87.95 14.48-.04 11.98-.04s-4.9.99-6.66 2.76-2.77 4.15-2.77 6.65c0 4.87 7.74 14.27 8.62 15.33.1.12.22.21.36.28.14.06.29.1.44.1.15 0 .3-.03.44-.1.14-.06.26-.16.36-.28.05-.06 1.19-1.43 2.64-3.4.16-.22.23-.5.19-.78-.04-.27-.19-.52-.42-.68-.22-.16-.5-.23-.78-.19-.27.04-.52.19-.68.42-.68.93-1.3 1.73-1.75 2.31-2.61-3.28-7.32-9.87-7.32-12.99.02-1.93.8-3.78 2.17-5.14a7.329 7.329 0 0 1 5.16-2.12c1.93 0 3.79.76 5.16 2.12a7.356 7.356 0 0 1 2.17 5.14c0 1.5-1.18 4.14-3.33 7.45-.08.12-.13.24-.15.38-.03.14-.02.27.01.41.03.13.08.26.16.38.06.09.16.19.28.26z"/><path class="gnb-st0" d="M8.3 8.82c0 .72.21 1.43.62 2.04a3.66 3.66 0 0 0 3.76 1.56c.71-.14 1.36-.49 1.88-1a3.673 3.673 0 0 0 .79-4c-.28-.67-.74-1.24-1.35-1.65-.6-.4-1.31-.62-2.04-.62-.97 0-1.9.39-2.59 1.07-.68.7-1.06 1.63-1.07 2.6zm5.24 0c0 .31-.09.61-.26.87s-.42.46-.7.58c-.29.12-.6.15-.91.09a1.571 1.571 0 0 1-1.14-2.14c.12-.29.32-.53.58-.7a1.574 1.574 0 0 1 1.98.2c.28.28.45.68.45 1.1z"/></svg>