<svg width="97" height="29" viewBox="0 0 97 29" fill="none" xmlns="http://www.w3.org/2000/svg">
<g clip-path="url(#clip0_180_39116)">
<path d="M42.8266 20.2829C42.5618 20.2916 42.2973 20.2584 42.0429 20.1845C41.8068 20.0814 41.6 19.9214 41.4409 19.7188L40.6609 18.8517C40.5741 18.7571 40.4931 18.6572 40.4186 18.5526C40.2865 18.3623 40.208 18.14 40.1914 17.909C40.1914 17.7802 40.1914 17.6174 40.1914 17.4168V8.14044C40.1914 7.72774 40.3845 7.52328 40.7745 7.52328H47.5216V9.35204H42.342V12.718H46.8552V14.5316H42.342V17.2464C42.3424 17.3245 42.3588 17.4017 42.39 17.4733C42.4213 17.5449 42.4668 17.6094 42.5237 17.6629L43.0424 18.2649C43.1421 18.3676 43.278 18.4274 43.4211 18.4315H48.1577V20.2792L42.8266 20.2829ZM52.2052 7.14087V21.415H50.0735V14.3537H47.779V12.5211H50.0811V7.14087H52.2052Z" fill="#040000"/>
<path d="M60.3488 14.9708C60.8372 15.6447 61.3294 16.2922 61.8254 16.9018C62.3214 17.5114 62.8818 18.1664 63.5141 18.8669L62.098 20.1352C61.5225 19.4878 60.9622 18.8517 60.4662 18.2194C59.9702 17.5871 59.4666 16.9586 59.0009 16.3263C58.9441 16.2392 58.8986 16.1559 58.857 16.0764C58.8188 15.9979 58.7945 15.9133 58.7851 15.8265C58.7748 15.9112 58.7491 15.9933 58.7093 16.0688C58.6715 16.1408 58.6222 16.2278 58.5655 16.3263C58.1237 16.9523 57.6467 17.5833 57.1343 18.2194C56.6219 18.8555 56.0829 19.5143 55.5175 20.1958L54.0371 18.9615C54.6126 18.3178 55.1679 17.6653 55.703 17.004C56.2382 16.3427 56.7544 15.6574 57.2516 14.9481C57.3387 14.8231 57.4144 14.7095 57.475 14.6035C57.5345 14.5044 57.5827 14.399 57.6189 14.2893C57.6531 14.1656 57.6747 14.0387 57.6832 13.9106C57.6832 13.7706 57.7022 13.6077 57.7022 13.4184V10.8551H54.2946V8.96201H57.7249V6.99695H59.8755V8.96201H63.2074V10.8551H59.8944V13.4184C59.8944 13.6077 59.8944 13.7706 59.8944 13.9106C59.9021 14.0391 59.925 14.1662 59.9626 14.2893C59.9971 14.3997 60.0454 14.5053 60.1065 14.6035C60.1777 14.732 60.2587 14.8548 60.3488 14.9708ZM67.0315 7.14083V21.415H64.8961V7.14083H67.0315Z" fill="#040000"/>
<path d="M74.8612 21.6648V17.3031H69.4961V15.4365H82.305V17.3031H77.0042V21.6497L74.8612 21.6648ZM77.5911 10.0562C78.3256 10.561 79.0829 11.0545 79.8629 11.5366C80.6428 12.0187 81.4241 12.4857 82.2065 12.9375L81.1388 14.5543C80.3399 14.0734 79.5221 13.5736 78.6891 13.0398C77.8562 12.5059 77.0421 11.9796 76.2394 11.4344C76.1876 11.3799 76.132 11.3293 76.0728 11.2829C76.0122 11.2285 75.9666 11.1594 75.9403 11.0823C75.916 11.1568 75.8759 11.2252 75.8229 11.2829C75.7707 11.3369 75.715 11.3875 75.6563 11.4344C74.8562 11.9998 74.0484 12.5551 73.2331 13.1003C72.4191 13.6456 71.5975 14.1643 70.7758 14.6641L69.6778 13.017C70.4553 12.5703 71.2302 12.0957 72.0026 11.5934C72.775 11.0911 73.5322 10.5711 74.2743 10.0335C74.4665 9.91821 74.6308 9.76174 74.7552 9.57533C74.8487 9.3636 74.889 9.13224 74.8726 8.90138V7.10291H77.0232V8.90138C77.0168 9.0275 77.0168 9.15387 77.0232 9.28C77.033 9.3781 77.0586 9.47398 77.0989 9.56397C77.1418 9.65443 77.2038 9.73452 77.2806 9.79872C77.3795 9.88992 77.4832 9.97587 77.5911 10.0562Z" fill="#040000"/>
<path d="M88.0378 17.8029V15.2018H84.0547V13.4714H93.4522V15.2018H90.1203V17.8029H88.0378ZM88.636 7.10675C89.2106 7.09791 89.7833 7.17317 90.3361 7.33014C90.7742 7.45602 91.1859 7.65996 91.5515 7.93215C91.8559 8.16129 92.1045 8.45644 92.2784 8.79542C92.4351 9.10956 92.518 9.45532 92.5207 9.80635V10.0032C92.5193 10.3593 92.4365 10.7103 92.2784 11.0293C92.1056 11.3701 91.8569 11.6667 91.5515 11.8964C91.1864 12.1685 90.7744 12.3713 90.3361 12.4946C89.7839 12.6547 89.2109 12.7313 88.636 12.7218C88.0512 12.7328 87.468 12.6562 86.9057 12.4946C86.4646 12.3696 86.0491 12.167 85.679 11.8964C85.3705 11.669 85.1201 11.3719 84.9482 11.0293C84.7881 10.711 84.7051 10.3595 84.7059 10.0032V9.80635C84.7075 9.45517 84.7904 9.10914 84.9482 8.79542C85.1213 8.45468 85.3715 8.15907 85.679 7.93215C86.0498 7.66165 86.4649 7.45793 86.9057 7.33014C87.4686 7.17179 88.0515 7.09653 88.636 7.10675ZM96.9999 19.8172V21.6157H87.4055C87.1487 21.6278 86.8919 21.5919 86.6483 21.5097C86.4571 21.4197 86.2869 21.2907 86.1485 21.131L85.7169 20.6805C85.6371 20.5941 85.5625 20.503 85.4935 20.4079C85.4301 20.3246 85.3814 20.2311 85.3496 20.1315C85.3139 20.0204 85.2886 19.9064 85.2739 19.7907C85.2573 19.6335 85.2497 19.4755 85.2511 19.3174V16.9245H87.3828V19.0751C87.3775 19.2083 87.4117 19.34 87.4812 19.4537L87.7501 19.7377C87.7883 19.7672 87.8303 19.7914 87.875 19.8096C87.9356 19.8315 88.0001 19.8405 88.0643 19.8361L96.9999 19.8172ZM90.4686 9.85557C90.4591 9.70702 90.4143 9.56287 90.3379 9.43512C90.2615 9.30736 90.1558 9.19968 90.0294 9.12104C89.6111 8.86726 89.1239 8.75075 88.636 8.78784C88.141 8.75126 87.6467 8.86757 87.22 9.12104C87.0918 9.19833 86.9842 9.30551 86.9064 9.43342C86.8286 9.56133 86.7829 9.70617 86.7732 9.85557V9.95401C86.7806 10.107 86.8251 10.256 86.9029 10.3879C86.9808 10.5199 87.0896 10.6308 87.22 10.7113C87.6443 10.9711 88.1399 11.0904 88.636 11.052C89.1251 11.0919 89.6139 10.9723 90.0294 10.7113C90.1577 10.6293 90.2646 10.5177 90.341 10.386C90.4174 10.2542 90.4611 10.1061 90.4686 9.95401V9.85557ZM91.453 15.9855H94.5843V7.14083H96.6856V18.5337H94.5843V17.553H91.453V15.9855Z" fill="#040000"/>
<path d="M13.8122 0C11.2979 0.00287063 8.88211 0.977725 7.06999 2.72069C5.25787 4.46366 4.1898 6.83976 4.08915 9.35204H0V28.8134H19.113C21.6274 28.8116 24.044 27.8385 25.858 26.0972C27.6719 24.356 28.743 21.9812 28.8475 19.4689H32.9328V0H13.8122ZM31.1457 17.6818H26.9543C27.0363 18.1405 27.0782 18.6054 27.0793 19.0714C27.0793 19.2039 27.0793 19.3326 27.0793 19.45C26.9819 21.4924 26.1014 23.4189 24.6207 24.8291C23.14 26.2393 21.1729 27.0248 19.1282 27.0225H1.77954V11.1202H5.98227C5.90026 10.6616 5.85847 10.1966 5.85735 9.73067C5.85735 9.60194 5.85735 9.46942 5.85735 9.35204C5.95471 7.30958 6.83521 5.38314 8.31591 3.97295C9.79662 2.56275 11.7637 1.77722 13.8085 1.77954H31.1419L31.1457 17.6818Z" fill="#040000"/>
</g>
<defs>
<clipPath id="clip0_180_39116">
<rect width="97" height="28.8134" fill="white"/>
</clipPath>
</defs>
</svg>
